{"title":"Spotlight.2015.BRRip.480p.x264.AAC-VYTO [P2PDL]","uid":13497777,"size":513806459,"categoryP":"video","categoryS":"movies","magnet":"?xt=urn:btih:f9782770d8ddfe8fdbb667e3d6330320bc2bb70f&amp;dn=Spotlight.2015.BRRip.480p.x264.AAC-VYTO+%5BP2PDL%5D&amp;tr=udp%3A%2F%2Ftracker.leechers-paradise.org%3A6969&amp;tr=udp%3A%2F%2Fzer0day.ch%3A1337&amp;tr=udp%3A%2F%2Fopen.demonii.com%3A1337&amp;tr=udp%3A%2F%2Ftracker.coppersurfer.tk%3A6969&amp;tr=udp%3A%2F%2Fexodus.desync.com%3A6969","seeders":1,"leechers":1,"uploader":"VYTOP2PDL","files":7,"time":1455170210,"description":"Spotlight.2015.BRRip.480p.x264.AAC-VYTO\r\n\r\n\r\nGenre: Biography, Drama, History \nhttp://www.imdb.com/title/tt1895587/\r\n\r\n\r\n\r\nFormat                                   : MPEG-4\r\nFile size                                : 477 MiB\r\nDuration                                 : 2h 9mn\r\nOverall bit rate                         : 516 Kbps\r\n\r\nVideo\r\nFormat                                   : AVC\r\nBit rate                                 : 481 Kbps\r\nWidth                                    : 720 pixels\r\nHeight                                   : 384 pixels\r\nDisplay aspect ratio                     : 1.85:1\r\nFrame rate mode                          : Constant\r\nFrame rate                               : 23.976 fps\r\nBit depth                                : 8 bits\r\nStream size                              : 444 MiB (93%)\r\nWriting library                          : x264\r\n\r\nAudio\r\nFormat                                   : AAC\r\nBit rate mode                            : Variable\r\nBit rate                                 : 32.0 Kbps\r\nChannel(s)                               : 2 channels\r\nChannel positions                        : Front: L R \r\nSampling rate                            : 48.0 KHz\r\nStream size                              : 29.5 MiB (6%)\r\nLanguage                                 : English\r\n\r\nSubtitle                                 : Yes (English)\r\n\r\nScreen Shots: (Click to view)\r\n \nhttp://ititli.com/Xqx \nhttp://ititli.com/Xq7 \nhttp://ititli.com/XqC \nhttp://ititli.com/XqF \nhttp://ititli.com/XqJ \nhttp://ititli.com/Xq5 \nhttp://ititli.com/XqB \nhttp://ititli.com/XqN \nhttp://ititli.com/XqP \nhttp://ititli.com/Xqf \nhttp://ititli.com/Xqu \nhttp://ititli.com/Xqv\r\n\r\n----------------------------------------------------------------------------------------------------\r\n\r\n\r\nEncoder Notes: Looking For Early Access To Anything You Can Provide WEBDL, DVDScr, DVDR, BluRay,\r\nDirect Audio, Music Releases and Seedboxes. If You Got anything to offer please contact us.\r\n\r\nSupport us by donating BC - 1FgwdzPsd1y25Gea8wP1qni35uGCtmkRCD\r\n\r\nSend some love!\r\nFind us and join us!","torrent":{"xt":"urn:btih:f9782770d8ddfe8fdbb667e3d6330320bc2bb70f","amp;dn":"Spotlight.2015.BRRip.480p.x264.AAC-VYTO+%5BP2PDL%5D","amp;tr":["udp%3A%2F%2Ftracker.leechers-paradise.org%3A6969","udp%3A%2F%2Fzer0day.ch%3A1337","udp%3A%2F%2Fopen.demonii.com%3A1337","udp%3A%2F%2Ftracker.coppersurfer.tk%3A6969","udp%3A%2F%2Fexodus.desync.com%3A6969"],"infoHash":"f9782770d8ddfe8fdbb667e3d6330320bc2bb70f","infoHashBuffer":{"type":"Buffer","data":[249,120,39,112,216,221,254,143,219,182,103,227,214,51,3,32,188,43,183,15]},"announce":[],"urlList":[]}}